Coordinates
version=1
nRows=5
nColumns=40
inDegrees=yes

Units are S.I. units (second, meters, Newtons, ...)
Angles are in degrees.

endheader
time	pelvis_tilt	pelvis_list	pelvis_rotation	pelvis_tx	pelvis_ty	pelvis_tz	hip_flexion_r	hip_adduction_r	hip_rotation_r	knee_angle_r	knee_angle_r_beta	ankle_angle_r	subtalar_angle_r	mtp_angle_r	hip_flexion_l	hip_adduction_l	hip_rotation_l	knee_angle_l	knee_angle_l_beta	ankle_angle_l	subtalar_angle_l	mtp_angle_l	lumbar_extension	lumbar_bending	lumbar_rotation	arm_flex_r	arm_add_r	arm_rot_r	elbow_flex_r	pro_sup_r	wrist_flex_r	wrist_dev_r	arm_flex_l	arm_add_l	arm_rot_l	elbow_flex_l	pro_sup_l	wrist_flex_l	wrist_dev_l
     35.62750000	     -2.43889953	     -4.43113045	      6.85682096	      1.04739613	      0.93138608	      0.46734908	      8.39743896	      2.89419391	    -15.37085359	     15.42653862	     15.42653862	     11.30015845	     -1.75092802	     -6.47158535	     33.85989145	    -11.41811816	      1.04670219	     39.23521586	     39.23521586	      9.99850100	    -17.16693429	     13.59569607	    -10.59322199	      6.82240834	      3.00907951	     21.29060260	    -21.74898456	     -1.73544589	     60.20195404	     45.33400972	      0.00000000	      0.00000000	     -5.17931623	    -10.91470362	     -2.80599313	     32.11020221	     46.36608100	      0.00000000	      0.00000000
     35.64071429	     -2.45091743	     -4.13301465	      7.15270554	      1.04640893	      0.93141346	      0.46692770	      7.95474432	      2.58867844	    -15.60609036	     15.24118996	     15.24118996	     11.52500229	     -1.59887132	     -6.56020530	     33.38561724	    -10.83337751	      0.73201775	     35.28779811	     35.28779811	      8.33790159	    -17.01006683	     10.82991105	    -10.87570174	      6.54840337	      3.08165520	     20.96468353	    -22.37370256	     -0.99228239	     65.99844960	     45.11614592	      0.00000000	      0.00000000	     -4.56183306	    -10.38044222	     -3.53515806	     29.07831616	     46.46395592	      0.00000000	      0.00000000
     35.65392857	     -2.56474194	     -4.12238233	      7.42717837	      1.04533519	      0.93093305	      0.46665149	      7.76749706	      2.59142508	    -15.71219558	     15.24050555	     15.24050555	     11.77569173	     -1.80031800	     -6.61227777	     33.38147479	    -10.52836118	      0.63371945	     32.13424984	     32.13424984	      8.13275273	    -16.00170499	     11.11986685	    -10.85965357	      6.50790783	      3.03428530	     22.10930127	    -22.01740782	     -1.21924182	     67.08076934	     45.09539400	      0.00000000	      0.00000000	     -5.00095209	    -10.24025968	     -3.55371528	     28.64177173	     46.45603806	      0.00000000	      0.00000000
     35.66714286	     -2.63645984	     -4.18693418	      7.70010872	      1.04435242	      0.93037618	      0.46625318	      7.56346645	      2.65092383	    -15.92370002	     15.30909130	     15.30909130	     12.14566142	     -1.76929730	     -6.48393700	     33.30285508	    -10.28429652	      0.56834013	     29.13501213	     29.13501213	      7.36258887	    -15.04811008	      9.85402692	    -10.91848668	      6.58351167	      3.13808809	     22.70231377	    -21.89172882	     -1.60959667	     69.85881429	     45.03834165	      0.00000000	      0.00000000	     -5.06889218	     -9.96425350	     -3.96883594	     27.68003455	     46.49518984	      0.00000000	      0.00000000
     35.68035714	     -2.74368611	     -4.19983602	      7.93460818	      1.04339281	      0.92982773	      0.46574646	      7.38374968	      2.66017068	    -16.01805287	     15.34925400	     15.34925400	     12.41636351	     -1.91262500	     -6.54594341	     33.30373209	     -9.99499327	      0.44199176	     26.59481045	     26.59481045	      7.24875755	    -13.72489712	     10.14272800	    -10.87874979	      6.55426648	      3.10407619	     23.79503367	    -21.53211971	     -1.68229265	     70.91520082	     45.01319616	      0.00000000	      0.00000000	     -5.39039629	     -9.80462906	     -3.95434605	     27.39484140	     46.48375408	      0.00000000	      0.00000000
